<svg xmlns="http://www.w3.org/2000/svg" viewBox="0 0 1200 760" role="img" aria-labelledby="title desc">
  <title id="title">Quiet horizon</title>
  <desc id="desc">An abstract architectural arch frames layered desert horizons and their reflection.</desc>
  <defs>
    <linearGradient id="sky" x2="0" y2="1">
      <stop stop-color="#f8f3e9"/>
      <stop offset=".58" stop-color="#e7e9e3"/>
      <stop offset="1" stop-color="#cddbd7"/>
    </linearGradient>
    <linearGradient id="arch" x2="1" y2="1">
      <stop stop-color="#f9f6ef"/>
      <stop offset="1" stop-color="#d9d5c8"/>
    </linearGradient>
    <linearGradient id="dune" x2="0" y2="1">
      <stop stop-color="#d6b995"/>
      <stop offset="1" stop-color="#b79272"/>
    </linearGradient>
    <clipPath id="opening">
      <path d="M333 584V314c0-149 120-269 268-269s268 120 268 269v270Z"/>
    </clipPath>
  </defs>
  <rect width="1200" height="760" fill="#f8f3e9"/>
  <path d="M0 488c193-56 341-52 521 5 242 77 425 48 679-47v314H0Z" fill="#ebe3d6"/>
  <path d="M0 572c213-45 345-20 524 22 256 61 451-12 676-54v220H0Z" fill="#ded8c9"/>
  <path d="M254 584V314C254 121 409-35 601-35s347 156 347 349v270H254Z" fill="url(#arch)"/>
  <g clip-path="url(#opening)">
    <rect x="333" y="45" width="536" height="540" fill="url(#sky)"/>
    <circle cx="678" cy="200" r="63" fill="#fff8e7" opacity=".88"/>
    <path d="M333 397c117-50 229-53 350-4 69 28 129 27 186 12v179H333Z" fill="#9ab7b0"/>
    <path d="M333 477c159-72 264-40 387 2 56 19 103 21 149 7v98H333Z" fill="url(#dune)"/>
    <path d="M333 520c148 34 261 28 383-6 61-17 114-18 153-7v77H333Z" fill="#e3c8a7"/>
    <path d="M333 497h536" stroke="#fff9ed" stroke-width="3" opacity=".7"/>
    <path d="M507 500c34 24 79 39 137 44 37 3 75-2 111-13" fill="none" stroke="#f5eadd" stroke-width="3" opacity=".72"/>
  </g>
  <path d="M332 584V314c0-149 120-269 269-269s269 120 269 269v270" fill="none" stroke="#cec7b8" stroke-width="2"/>
  <path d="M235 584h732" stroke="#a4aaa1" stroke-width="2" opacity=".54"/>
  <path d="M254 584c-41 21-77 43-107 68 211-28 380-35 526-26 162 10 283 37 380 68-26-52-62-88-105-110Z" fill="#e7e3d8" opacity=".76"/>
</svg>
